<?xml version="1.0" encoding="UTF-8"?>
<svg width="1440px" height="1044px" viewBox="0 0 1440 1044" version="1.1" xmlns="http://www.w3.org/2000/svg" xmlns:xlink="http://www.w3.org/1999/xlink">
    <!-- Generator: Sketch 44.1 (41455) - http://www.bohemiancoding.com/sketch -->
    <title>scheme</title>
    <desc>Created with Sketch.</desc>
    <defs>
        <rect id="path-1" x="0" y="0" width="1440" height="1044"></rect>
        <polygon id="path-3" points="274 561.655722 1158.32376 168 1319.57689 519.9849 435.253128 913.640622"></polygon>
        <mask id="mask-4" maskContentUnits="userSpaceOnUse" maskUnits="objectBoundingBox" x="0" y="0" width="1045.57689" height="745.640622" fill="white">
            <use xlink:href="#path-3"></use>
        </mask>
    </defs>
    <g id="Page-1" stroke="none" stroke-width="1" fill="none" fill-rule="evenodd">
        <g id="Logi-02" transform="translate(0.000000, -991.000000)">
            <g id="Group-3" transform="translate(0.000000, 991.000000)">
                <g id="scheme">
                    <mask id="mask-2" fill="white">
                        <use xlink:href="#path-1"></use>
                    </mask>
                    <use id="Rectangle-6" fill="#222222" xlink:href="#path-1"></use>
                    <path d="M554.660141,503.411174 L631.989524,677.095812 L1125.55842,457.344779 L1048.22904,283.660141 L554.660141,503.411174 Z" id="Rectangle-2" stroke="#888888" mask="url(#mask-2)"></path>
                    <path d="M346.65073,601.390035 L423.979656,775.073647 L483.289482,745.22595 L405.960556,571.542338 L346.65073,601.390035 Z" id="Rectangle-2" stroke="#888888" mask="url(#mask-2)"></path>
                    <g id="Rectangle-2" stroke-dasharray="4,12" mask="url(#mask-2)" stroke-width="2" stroke="#888888">
                        <use mask="url(#mask-4)" xlink:href="#path-3"></use>
                    </g>
                    <path d="M1105,255 C1105,255 1299.68745,688.546182 1357.31948,837.092888 C1414.9515,985.639594 1547.80635,1234.18158 1547.80635,1234.18158" id="Path-5" stroke="#888888" stroke-width="22" stroke-dasharray="1,4" mask="url(#mask-2)"></path>
                    <path d="M1097.24594,258.482025 C1098.64812,261.606765 1099.39664,263.275884 1100.25566,265.192307 C1102.71029,270.668444 1105.55779,277.027429 1108.76541,284.198341 C1117.9305,304.687679 1128.14322,327.573759 1139.1416,352.289183 C1170.56509,422.903635 1201.98836,494.028001 1231.3152,561.121768 C1233.21345,565.464575 1235.09806,569.779466 1236.96867,574.065632 C1289.64502,694.763975 1328.85929,787.236564 1349.39499,840.167372 C1364.82811,879.946287 1386.40091,928.907436 1412.89809,985.037087 C1418.98949,997.940649 1425.30879,1011.15313 1431.83445,1024.63856 C1455.56502,1073.67832 1480.98484,1124.21864 1506.40408,1173.43096 C1515.30051,1190.65468 1523.5619,1206.48309 1530.97682,1220.56212 C1533.57285,1225.4913 1535.87792,1229.85025 1537.86559,1233.59468 C1538.56177,1234.90617 1539.16869,1236.04742 1539.68303,1237.01289 C1539.88924,1237.39995 1545.09576,1235.12051 1555.3026,1230.17456 C1554.17632,1228.06173 1553.57335,1226.92791 1552.88115,1225.62392 C1550.902,1221.89554 1548.60555,1217.5529 1546.01827,1212.64032 C1538.62373,1198.59999 1530.38314,1182.81144 1521.50821,1165.62935 C1496.15215,1116.53933 1470.79666,1066.12693 1447.13695,1017.2336 C1440.63448,1003.79611 1434.33868,990.632732 1428.27122,977.77988 C1401.93114,921.983027 1380.50819,873.361985 1365.24397,834.018404 C1344.59533,780.796492 1305.31933,688.178329 1252.54946,567.265711 C1250.67757,562.976592 1248.79167,558.658769 1246.89214,554.313049 C1217.54862,487.181104 1186.1108,416.023788 1154.67319,345.377614 C1143.67019,320.651819 1133.45305,297.755828 1124.28366,277.25687 C1121.07421,270.081879 1118.22492,263.718889 1115.76852,258.23881 C1114.90869,256.320557 1114.15935,254.649625 1113.5246,253.234876 C1113.27061,252.668765 1107.84439,254.417814 1097.24594,258.482025 Z" id="Path-5" stroke="#888888" mask="url(#mask-2)" fill-rule="nonzero"></path>
                    <path d="M307.536472,1039.86581 C307.536472,996.162391 317.998992,963.626408 338.797387,936.914125 C356.091784,914.702179 378.958354,897.254706 418.698173,873.641971 C426.208618,869.179391 455.573882,852.16491 462.418463,848.120258 C480.352612,837.522475 494.842618,828.438419 508.852423,818.808671 C519.089535,811.772112 528.760515,804.636898 538.038752,797.223971 C577.842377,765.422526 611.808275,742.321957 608.851396,709.150707 C605.924551,676.31638 586.225465,666.855659 614.114775,638.605618 C595.475424,595.586137 582.057319,564.963947 573.860461,546.739049 C521.804356,574.076396 503.559184,604.696876 496.39054,638.605618 C489.221896,672.514359 519.587346,709.478594 521.804356,734.349744 C523.991332,758.883972 516.021762,786.460204 496.39054,800.678545 C482.994045,810.381249 468.763087,818.816973 451.226159,829.180028 C444.498602,833.155527 415.102523,850.187862 407.460263,854.728765 C365.542728,879.635462 340.833244,898.489101 321.438624,923.398454 C297.533699,954.100589 285.536472,991.409151 285.536472,1039.86581 L307.536472,1039.86581 Z" id="Path-2" stroke="#888888" fill="#333333" fill-rule="nonzero" mask="url(#mask-2)"></path>
                </g>
            </g>
        </g>
    </g>
</svg>